<svg width="24" height="24" viewBox="0 0 24 24" fill="none" xmlns="http://www.w3.org/2000/svg">
<g id="Icon" clip-path="url(#clip0_1_4630)">
<path id="Vector" d="M6.45732 13C5.70732 13 5.04733 12.59 4.70732 11.97L1.12733 5.48C0.757324 4.82 1.23732 4 1.99732 4H16.7973L17.7373 2H21.0073V4H19.0073L15.4073 11.59L16.7573 14.03C17.4873 15.37 16.5273 17 15.0073 17H3.00732V15H15.0073L13.9073 13H6.45732ZM15.8473 6H3.69732L6.45732 11H13.4773L15.8473 6ZM15.0073 18C16.1073 18 16.9973 18.9 16.9973 20C16.9973 21.1 16.1073 22 15.0073 22C13.9073 22 13.0073 21.1 13.0073 20C13.0073 18.9 13.9073 18 15.0073 18ZM5.00732 18C6.10732 18 6.99732 18.9 6.99732 20C6.99732 21.1 6.10732 22 5.00732 22C3.90732 22 3.00732 21.1 3.00732 20C3.00732 18.9 3.90732 18 5.00732 18Z" fill="#4318FF"/>
</g>
<defs>
<clipPath id="clip0_1_4630">
<rect width="24" height="24" fill="white"/>
</clipPath>
</defs>
</svg>
