<svg width="16" height="18" viewBox="0 0 16 18" fill="none" xmlns="http://www.w3.org/2000/svg">
<g id="android-seeklogo.com 1" clip-path="url(#clip0_1_5125)">
<g id="Group">
<path id="Vector" d="M4.89931 0.051417C4.81154 0.0522184 4.72043 0.0724787 4.63743 0.116502C4.37383 0.256304 4.27716 0.580414 4.42316 0.832432L5.01835 1.86077C3.58439 2.70971 2.63417 4.15971 2.63417 5.81466C2.63417 5.8216 2.63415 5.83204 2.63417 5.84232C2.63417 5.84594 2.63413 5.84801 2.63417 5.85208C2.63417 5.85749 2.63417 5.86539 2.63417 5.86672V6.12218C2.35876 5.81899 1.95392 5.62754 1.50159 5.62754C0.672911 5.62754 0 6.27139 0 7.06428V11.49C0 12.2829 0.672911 12.9268 1.50159 12.9268C1.95392 12.9268 2.35876 12.7353 2.63417 12.4321V13.0521C2.63417 13.8879 3.34896 14.5718 4.22249 14.5718H4.62552V16.5406C4.62552 17.3335 5.29844 17.9773 6.12712 17.9773C6.9558 17.9773 7.62871 17.3335 7.62871 16.5406V14.5718H8.32594V16.5406C8.32594 17.3335 8.99885 17.9773 9.82754 17.9773C10.6562 17.9773 11.3291 17.3335 11.3291 16.5406V14.5718H11.7322C12.6057 14.5718 13.3205 13.8879 13.3205 13.0521V12.4321C13.5959 12.7353 14.0007 12.9268 14.4531 12.9268C15.2817 12.9268 15.9547 12.2829 15.9547 11.49V7.06428C15.9547 6.27139 15.2817 5.62754 14.4531 5.62754C14.0007 5.62754 13.5959 5.81899 13.3205 6.12218V5.8716V5.86672C13.3205 5.85889 13.3205 5.8511 13.3205 5.85208C13.3206 5.83648 13.3205 5.82406 13.3205 5.81466C13.3205 4.16 12.3682 2.71139 10.9346 1.8624L11.5315 0.832431C11.6775 0.580413 11.5808 0.256303 11.3172 0.1165C11.2342 0.0724771 11.1431 0.0522179 11.0553 0.0514155C10.8607 0.0496328 10.6696 0.147789 10.569 0.321517L9.94488 1.40029C9.33462 1.18482 8.67063 1.06674 7.97733 1.06674C7.28473 1.06674 6.61952 1.18361 6.00978 1.39867L5.38567 0.321517C5.28503 0.147789 5.09397 0.049637 4.89931 0.0514155V0.051417Z" fill="white"/>
<path id="Vector_2" d="M1.5017 6.00195C0.883303 6.00195 0.391235 6.47277 0.391235 7.06446V11.4902C0.391235 12.0819 0.883303 12.5527 1.5017 12.5527C2.1201 12.5527 2.61217 12.0819 2.61217 11.4902V7.06446C2.61217 6.47277 2.1201 6.00195 1.5017 6.00195ZM14.4532 6.00195C13.8348 6.00195 13.3427 6.47277 13.3427 7.06446V11.4902C13.3427 12.0819 13.8348 12.5527 14.4532 12.5527C15.0716 12.5527 15.5636 12.0819 15.5636 11.4902V7.06446C15.5636 6.47277 15.0716 6.00195 14.4532 6.00195Z" fill="#E0E5F2"/>
<path id="Vector_3" d="M6.12719 11.0524C5.50879 11.0524 5.01672 11.5232 5.01672 12.1149V16.5406C5.01672 17.1323 5.50879 17.6031 6.12719 17.6031C6.74559 17.6031 7.23765 17.1323 7.23765 16.5406V12.1149C7.23765 11.5232 6.74559 11.0524 6.12719 11.0524ZM9.82761 11.0524C9.20921 11.0524 8.71714 11.5232 8.71714 12.1149V16.5406C8.71714 17.1323 9.20921 17.6031 9.82761 17.6031C10.446 17.6031 10.9381 17.1323 10.9381 16.5406V12.1149C10.9381 11.5232 10.446 11.0524 9.82761 11.0524Z" fill="#E0E5F2"/>
<path id="Vector_4" d="M4.90269 0.425667C4.87644 0.425923 4.85198 0.432404 4.82786 0.445192C4.74868 0.487189 4.72264 0.574252 4.76664 0.650209L5.5489 2.00234C4.04387 2.75163 3.02731 4.17557 3.02527 5.80979H12.9293C12.9273 4.17557 11.9107 2.75163 10.4057 2.00234L11.188 0.650209C11.232 0.574252 11.2059 0.487189 11.1267 0.445192C11.1026 0.432404 11.0782 0.425906 11.0519 0.425667C10.9957 0.425148 10.9424 0.452013 10.9125 0.503768L10.12 1.87054C9.47174 1.59541 8.74461 1.44099 7.9773 1.44099C7.20999 1.44099 6.48286 1.59541 5.83459 1.87054L5.04213 0.503768C5.01215 0.452013 4.95888 0.425151 4.90269 0.425667ZM3.02527 6.18402V13.0521C3.02527 13.6867 3.55922 14.1976 4.22246 14.1976H11.7321C12.3954 14.1976 12.9293 13.6867 12.9293 13.0521V6.18402H3.02527Z" fill="#E0E5F2"/>
<path id="Vector_5" d="M5.6918 3.28467C5.46571 3.28467 5.27856 3.46373 5.27856 3.68006C5.27856 3.89638 5.46571 4.07544 5.6918 4.07544C5.91789 4.07544 6.10504 3.89638 6.10504 3.68006C6.10504 3.46373 5.91789 3.28467 5.6918 3.28467ZM10.2629 3.28467C10.0368 3.28467 9.84967 3.46373 9.84967 3.68006C9.84967 3.89638 10.0368 4.07544 10.2629 4.07544C10.489 4.07544 10.6761 3.89638 10.6761 3.68006C10.6761 3.46373 10.489 3.28467 10.2629 3.28467Z" fill="white"/>
</g>
</g>
<defs>
<clipPath id="clip0_1_5125">
<rect width="16" height="18" fill="white"/>
</clipPath>
</defs>
</svg>
