<svg width="15" height="18" viewBox="0 0 15 18" fill="none" xmlns="http://www.w3.org/2000/svg">
<g id="Apple_logo_black 1" clip-path="url(#clip0_1_5134)">
<path id="Vector" d="M12.5059 17.28C11.5404 18.2268 10.4751 18.0792 9.45963 17.6328C8.38006 17.1774 7.39312 17.1486 6.25298 17.6328C4.83314 18.252 4.07958 18.072 3.22447 17.28C-1.60332 12.2581 -0.890729 4.60806 4.59621 4.32006C5.92697 4.39206 6.85868 5.06346 7.64253 5.11926C8.80761 4.87986 9.92281 4.19406 11.1698 4.28406C12.6681 4.40646 13.7886 5.00406 14.5368 6.07866C11.4549 7.95066 12.1853 12.0547 15.016 13.2067C14.4495 14.7097 13.7227 16.1946 12.5042 17.2926L12.5059 17.28ZM7.53564 4.26606C7.39134 2.03406 9.18172 0.198066 11.2411 0.0180664C11.5244 2.59206 8.92519 4.51806 7.53564 4.26606Z" fill="#E0E5F2"/>
</g>
<defs>
<clipPath id="clip0_1_5134">
<rect width="15" height="18" fill="white"/>
</clipPath>
</defs>
</svg>
