<svg width="25" height="25" viewBox="0 0 25 25" fill="none" xmlns="http://www.w3.org/2000/svg">
<g id="bar_chart" clip-path="url(#clip0_1_4028)">
<path id="Vector" d="M7.24473 9.28093H7.44473C8.21473 9.28093 8.84473 9.91093 8.84473 10.6809V17.6809C8.84473 18.4509 8.21473 19.0809 7.44473 19.0809H7.24473C6.47473 19.0809 5.84473 18.4509 5.84473 17.6809V10.6809C5.84473 9.91093 6.47473 9.28093 7.24473 9.28093ZM12.8447 5.08093C13.6147 5.08093 14.2447 5.71093 14.2447 6.48093V17.6809C14.2447 18.4509 13.6147 19.0809 12.8447 19.0809C12.0747 19.0809 11.4447 18.4509 11.4447 17.6809V6.48093C11.4447 5.71093 12.0747 5.08093 12.8447 5.08093ZM18.4447 13.0809C19.2147 13.0809 19.8447 13.7109 19.8447 14.4809V17.6809C19.8447 18.4509 19.2147 19.0809 18.4447 19.0809C17.6747 19.0809 17.0447 18.4509 17.0447 17.6809V14.4809C17.0447 13.7109 17.6747 13.0809 18.4447 13.0809Z" fill="#4318FF"/>
</g>
<defs>
<clipPath id="clip0_1_4028">
<rect width="24" height="24" fill="white" transform="translate(0.844727 0.0809326)"/>
</clipPath>
</defs>
</svg>
