<svg width="80" height="80" viewBox="0 0 80 80" fill="none" xmlns="http://www.w3.org/2000/svg">
<g id="upload" clip-path="url(#clip0_1_8639)">
<path id="Vector" d="M33.3333 53.3333H46.6666C48.5 53.3333 50 51.8333 50 49.9999V33.3333H55.3C58.2666 33.3333 59.7666 29.7333 57.6666 27.6333L42.3666 12.3333C41.0666 11.0333 38.9666 11.0333 37.6666 12.3333L22.3666 27.6333C20.2666 29.7333 21.7333 33.3333 24.7 33.3333H30V49.9999C30 51.8333 31.5 53.3333 33.3333 53.3333ZM20 59.9999H60C61.8333 59.9999 63.3333 61.4999 63.3333 63.3333C63.3333 65.1666 61.8333 66.6666 60 66.6666H20C18.1666 66.6666 16.6666 65.1666 16.6666 63.3333C16.6666 61.4999 18.1666 59.9999 20 59.9999Z" fill="#4318FF"/>
</g>
<defs>
<clipPath id="clip0_1_8639">
<rect width="80" height="80" fill="white"/>
</clipPath>
</defs>
</svg>
