<svg width="34" height="34" viewBox="0 0 34 34" fill="none" xmlns="http://www.w3.org/2000/svg">
<g id="Icon" clip-path="url(#clip0_1_3969)">
<path id="Vector" d="M16.6734 15.6397C13.5672 14.8324 12.5682 13.9976 12.5682 12.6977C12.5682 11.2061 13.9503 10.1661 16.2629 10.1661C18.206 10.1661 19.1776 10.9051 19.5334 12.0819C19.6976 12.6292 20.1492 13.0398 20.7239 13.0398H21.1344C22.0376 13.0398 22.6807 12.1503 22.366 11.3019C21.7913 9.68718 20.4502 8.34614 18.3155 7.82615V6.88195C18.3155 5.74618 17.3987 4.82935 16.2629 4.82935C15.1271 4.82935 14.2103 5.74618 14.2103 6.88195V7.7851C11.5556 8.35982 9.4209 10.084 9.4209 12.725C9.4209 15.886 12.0345 17.4597 15.8524 18.3765C19.2734 19.1976 19.9576 20.4018 19.9576 21.6744C19.9576 22.6186 19.2871 24.1238 16.2629 24.1238C14.005 24.1238 12.8419 23.3165 12.3903 22.167C12.1851 21.6333 11.7198 21.2502 11.1588 21.2502H10.7756C9.85879 21.2502 9.21564 22.1807 9.55774 23.0291C10.3377 24.9312 12.1577 26.0533 14.2103 26.4912V27.408C14.2103 28.5438 15.1271 29.4606 16.2629 29.4606C17.3987 29.4606 18.3155 28.5438 18.3155 27.408V26.5185C20.9839 26.0122 23.1049 24.4659 23.1049 21.6607C23.1049 17.7744 19.7797 16.4471 16.6734 15.6397Z" fill="#4318FF"/>
</g>
<defs>
<clipPath id="clip0_1_3969">
<rect width="32.8417" height="32.8417" fill="white" transform="translate(0.526367 0.724121)"/>
</clipPath>
</defs>
</svg>
