<svg width="24" height="24" viewBox="0 0 24 24" fill="none" xmlns="http://www.w3.org/2000/svg">
<g id="fastfood" clip-path="url(#clip0_1_4459)">
<path id="Vector" d="M21.9 4.99994H18V1.99994C18 1.44994 17.55 0.999939 17 0.999939C16.45 0.999939 16 1.44994 16 1.99994V4.99994H12.1C11.51 4.99994 11.05 5.50994 11.1 6.09994L11.22 7.30994C14.9 8.15994 18 10.7699 18 14.9999L18.02 22.9999H19.72C20.56 22.9999 21.25 22.3499 21.35 21.5299L22.89 6.09994C22.95 5.50994 22.49 4.99994 21.9 4.99994ZM15 20.9999H2C1.45 20.9999 1 21.4499 1 21.9999C1 22.5499 1.45 22.9999 2 22.9999H15C15.55 22.9999 16 22.5499 16 21.9999C16 21.4499 15.55 20.9999 15 20.9999ZM2.1 14.9999H14.9C15.52 14.9999 16.01 14.4399 15.89 13.8399C15.24 10.6099 11.87 8.98994 8.5 8.98994C5.13 8.98994 1.77 10.6099 1.11 13.8399C0.99 14.4399 1.49 14.9999 2.1 14.9999ZM15 16.9999H2C1.45 16.9999 1 17.4499 1 17.9999C1 18.5499 1.45 18.9999 2 18.9999H15C15.55 18.9999 16 18.5499 16 17.9999C16 17.4499 15.55 16.9999 15 16.9999Z" fill="#A3AED0"/>
</g>
<defs>
<clipPath id="clip0_1_4459">
<rect width="24" height="24" fill="white"/>
</clipPath>
</defs>
</svg>
