<svg width="35" height="34" viewBox="0 0 35 34" fill="none" xmlns="http://www.w3.org/2000/svg">
<g id="Badge Stats (Favorite)">
<g id="Background">
<rect id="Rectangle 25" width="34.3736" height="34" rx="17" fill="white"/>
</g>
<g id="Favorite Icon">
<path id="Vector" d="M22.9437 11.4004C20.9594 9.99151 18.5091 10.649 17.1862 12.2614C15.8633 10.649 13.413 9.98369 11.4287 11.4004C10.3764 12.1518 9.71494 13.4198 9.66984 14.7582C9.56462 17.7952 12.1502 20.2294 16.0963 23.963L16.1715 24.0334C16.7427 24.5735 17.6221 24.5735 18.1934 24.0256L18.2761 23.9473C22.2221 20.2216 24.8002 17.7874 24.7025 14.7504C24.6574 13.4198 23.996 12.1518 22.9437 11.4004ZM17.2613 22.7967L17.1862 22.875L17.111 22.7967C13.5332 19.4232 11.1731 17.1925 11.1731 14.9304C11.1731 13.365 12.3006 12.1909 13.8038 12.1909C14.9613 12.1909 16.0888 12.9658 16.4872 14.0381H17.8927C18.2836 12.9658 19.411 12.1909 20.5685 12.1909C22.0718 12.1909 23.1993 13.365 23.1993 14.9304C23.1993 17.1925 20.8391 19.4232 17.2613 22.7967Z" fill="#4318FF"/>
</g>
</g>
</svg>
