<svg width="26" height="26" viewBox="0 0 26 26" fill="none" xmlns="http://www.w3.org/2000/svg">
<g id="Icon" clip-path="url(#clip0_1_3933)">
<path id="Vector" d="M16.2503 1.08325H4.33366C3.14199 1.08325 2.16699 2.05825 2.16699 3.24992V17.3333C2.16699 17.9291 2.65449 18.4166 3.25033 18.4166C3.84616 18.4166 4.33366 17.9291 4.33366 17.3333V4.33325C4.33366 3.73742 4.82116 3.24992 5.41699 3.24992H16.2503C16.8462 3.24992 17.3337 2.76242 17.3337 2.16659C17.3337 1.57075 16.8462 1.08325 16.2503 1.08325ZM16.8895 6.05575L22.122 11.2883C22.5228 11.6891 22.7503 12.2416 22.7503 12.8158V22.7499C22.7503 23.9416 21.7753 24.9166 20.5837 24.9166H8.65616C7.46449 24.9166 6.50033 23.9416 6.50033 22.7499L6.51116 7.58325C6.51116 6.39159 7.47533 5.41659 8.66699 5.41659H15.3512C15.9253 5.41659 16.4778 5.64409 16.8895 6.05575ZM16.2503 12.9999H21.1253L15.167 7.04159V11.9166C15.167 12.5124 15.6545 12.9999 16.2503 12.9999Z" fill="white"/>
</g>
<defs>
<clipPath id="clip0_1_3933">
<rect width="26" height="26" fill="white"/>
</clipPath>
</defs>
</svg>
