<svg width="28" height="28" viewBox="0 0 28 28" fill="none" xmlns="http://www.w3.org/2000/svg">
<g id="local_fire_department" clip-path="url(#clip0_1_4495)">
<g id="Group">
<path id="Vector" d="M22.7265 14.4084C20.8948 9.64835 14.3732 9.39169 15.9482 2.47335C16.0648 1.96002 15.5165 1.56335 15.0732 1.83169C10.8382 4.32835 7.79317 9.33335 10.3482 15.89C10.5582 16.4267 9.92817 16.9284 9.47317 16.5784C7.3615 14.98 7.13984 12.6817 7.3265 11.0367C7.3965 10.43 6.60317 10.1384 6.26484 10.64C5.4715 11.8534 4.6665 13.8134 4.6665 16.765C5.10984 23.2984 10.6282 25.305 12.6115 25.5617C15.4465 25.9234 18.5148 25.3984 20.7198 23.38C23.1465 21.1284 24.0332 17.535 22.7265 14.4084ZM11.8998 20.2767C13.5798 19.8684 14.4432 18.655 14.6765 17.5817C15.0615 15.9134 13.5565 14.28 14.5715 11.6434C14.9565 13.825 18.3865 15.19 18.3865 17.57C18.4798 20.5217 15.2832 23.0534 11.8998 20.2767Z" fill="#EE5D50"/>
</g>
</g>
<defs>
<clipPath id="clip0_1_4495">
<rect width="28" height="28" fill="white"/>
</clipPath>
</defs>
</svg>
