<svg width="21" height="20" viewBox="0 0 21 20" fill="none" xmlns="http://www.w3.org/2000/svg">
<g id="Google__G__Logo 1" clip-path="url(#clip0_222_1162)">
<g id="Group">
<path id="Vector" d="M20.324 10.225C20.324 9.56666 20.2657 8.94166 20.1657 8.33333H10.749V12.0917H16.1407C15.899 13.325 15.1907 14.3667 14.1407 15.075V17.575H17.3574C19.2407 15.8333 20.324 13.2667 20.324 10.225Z" fill="#4285F4"/>
<path id="Vector_2" d="M10.749 20C13.449 20 15.7073 19.1 17.3573 17.575L14.1406 15.075C13.2406 15.675 12.099 16.0417 10.749 16.0417C8.14064 16.0417 5.93231 14.2833 5.14064 11.9083H1.82397V14.4833C3.46564 17.75 6.84064 20 10.749 20Z" fill="#34A853"/>
<path id="Vector_3" d="M5.14069 11.9083C4.93236 11.3083 4.82402 10.6667 4.82402 9.99999C4.82402 9.33333 4.94069 8.69166 5.14069 8.09166V5.51666H1.82402C1.14069 6.86666 0.749023 8.38333 0.749023 9.99999C0.749023 11.6167 1.14069 13.1333 1.82402 14.4833L5.14069 11.9083Z" fill="#FBBC05"/>
<path id="Vector_4" d="M10.749 3.95833C12.224 3.95833 13.5406 4.46667 14.5823 5.45834L17.4323 2.60833C15.7073 0.991667 13.449 0 10.749 0C6.84064 0 3.46564 2.25 1.82397 5.51667L5.14064 8.09167C5.93231 5.71667 8.14064 3.95833 10.749 3.95833Z" fill="#EA4335"/>
</g>
</g>
<defs>
<clipPath id="clip0_222_1162">
<rect width="20" height="20" fill="white" transform="translate(0.536621)"/>
</clipPath>
</defs>
</svg>
