<svg width="18" height="18" viewBox="0 0 18 18" fill="none" xmlns="http://www.w3.org/2000/svg">
<g id="moon-solid 1" clip-path="url(#clip0_1_3913)">
<path id="Vector" d="M8.04297 18C5.26696 18 2.7316 16.737 1.0519 14.6675C0.803415 14.3613 1.07436 13.9141 1.45837 13.9872C5.82489 14.8188 9.83478 11.4709 9.83478 7.06303C9.83478 4.52398 8.47556 2.18914 6.26649 0.931992C5.92596 0.738211 6.0116 0.221941 6.39853 0.150469C6.94097 0.0504468 7.49139 8.21369e-05 8.04297 0C13.0109 0 17.043 4.02578 17.043 9C17.043 13.9679 13.0172 18 8.04297 18Z" fill="#A3AED0"/>
</g>
<defs>
<clipPath id="clip0_1_3913">
<rect width="18" height="18" fill="white" transform="matrix(-1 0 0 1 18 0)"/>
</clipPath>
</defs>
</svg>
