<svg width="22" height="24" viewBox="0 0 22 24" fill="none" xmlns="http://www.w3.org/2000/svg">
<g id="more_vert" clip-path="url(#clip0_1_4538)">
<path id="Vector" d="M10 8C11.1 8 12 7.1 12 6C12 4.9 11.1 4 10 4C8.9 4 8 4.9 8 6C8 7.1 8.9 8 10 8ZM10 10C8.9 10 8 10.9 8 12C8 13.1 8.9 14 10 14C11.1 14 12 13.1 12 12C12 10.9 11.1 10 10 10ZM10 16C8.9 16 8 16.9 8 18C8 19.1 8.9 20 10 20C11.1 20 12 19.1 12 18C12 16.9 11.1 16 10 16Z" fill="#A3AED0"/>
</g>
<defs>
<clipPath id="clip0_1_4538">
<rect width="24" height="24" fill="white" transform="translate(-2)"/>
</clipPath>
</defs>
</svg>
