<svg width="24" height="24" viewBox="0 0 24 24" fill="none" xmlns="http://www.w3.org/2000/svg">
<g id="notifications_none" clip-path="url(#clip0_1_3915)">
<path id="Vector" d="M4.70995 17.29L5.99995 16V11C5.99995 7.93 7.63995 5.36 10.4999 4.68V4C10.4999 3.17 11.1699 2.5 11.9999 2.5C12.8299 2.5 13.4999 3.17 13.4999 4V4.68C16.3699 5.36 17.9999 7.92 17.9999 11V16L19.2899 17.29C19.9199 17.92 19.4799 19 18.5899 19H5.41995C4.51995 19 4.07995 17.92 4.70995 17.29ZM7.99995 17H15.9999V11C15.9999 8.52 14.4899 6.5 11.9999 6.5C9.50995 6.5 7.99995 8.52 7.99995 11V17ZM11.9999 22C10.8999 22 9.99995 21.1 9.99995 20H13.9999C13.9999 21.1 13.1099 22 11.9999 22Z" fill="#A3AED0"/>
</g>
<defs>
<clipPath id="clip0_1_3915">
<rect width="24" height="24" fill="white" transform="matrix(-1 0 0 1 24 0)"/>
</clipPath>
</defs>
</svg>
