<svg width="49" height="56" viewBox="0 0 49 56" fill="none" xmlns="http://www.w3.org/2000/svg">
<g id="Shopping Bag/Full color">
<path id="Vector" d="M42.6655 10.6064C42.6272 10.3283 42.3837 10.1739 42.1815 10.1571C41.9809 10.1403 38.0513 10.0807 38.0513 10.0807C38.0513 10.0807 34.7649 6.89603 34.4402 6.57206C34.1155 6.24809 33.4815 6.34589 33.235 6.41925C33.2319 6.42077 32.6178 6.61027 31.5841 6.92965C31.411 6.37034 31.1568 5.68267 30.7939 4.99194C29.6239 2.76389 27.9102 1.58568 25.8397 1.58262C25.8367 1.58262 25.8351 1.58262 25.8321 1.58262C25.6881 1.58262 25.5457 1.59637 25.4017 1.6086C25.3405 1.53525 25.2792 1.46342 25.2149 1.39313C24.3129 0.430387 23.1567 -0.0387576 21.7707 0.00250267C19.0969 0.0789107 16.4337 2.00592 14.2744 5.429C12.7552 7.83738 11.599 10.8631 11.2713 13.2058C8.20078 14.1548 6.05372 14.818 6.00625 14.8333C4.45644 15.3192 4.40744 15.3666 4.20529 16.8245C4.05521 17.9263 0 49.2169 0 49.2169L33.9838 55.082L48.7131 51.4281C48.7131 51.4281 42.7038 10.8845 42.6655 10.6064ZM29.8827 7.45534C29.1001 7.69679 28.2104 7.97186 27.2456 8.26985C27.2257 6.91895 27.0649 5.03932 26.4339 3.41488C28.4631 3.79845 29.4615 6.08916 29.8827 7.45534ZM25.4676 8.81998C23.6865 9.37012 21.7432 9.97069 19.7937 10.5728C20.3419 8.47768 21.3817 6.39174 22.659 5.02404C23.1337 4.51516 23.7983 3.94821 24.5855 3.62424C25.3252 5.16463 25.486 7.34531 25.4676 8.81998ZM21.8243 1.77822C22.4522 1.76447 22.9806 1.90201 23.4323 2.19847C22.7095 2.57287 22.0112 3.11078 21.3557 3.81221C19.6574 5.63072 18.3557 8.45323 17.8365 11.1764C16.2178 11.6761 14.6343 12.1667 13.1764 12.6159C14.0968 8.32945 17.6971 1.89742 21.8243 1.77822Z" fill="#95BF47"/>
<path id="Vector_2" d="M42.1831 10.1587C41.9824 10.1419 38.0528 10.0823 38.0528 10.0823C38.0528 10.0823 34.7664 6.89759 34.4417 6.57362C34.3207 6.45289 34.1569 6.39024 33.9854 6.36426L33.9869 55.0805L48.7146 51.4282C48.7146 51.4282 42.7053 10.8861 42.667 10.608C42.6287 10.3298 42.3837 10.1755 42.1831 10.1587Z" fill="#5E8E3E"/>
<path id="Vector_3" d="M25.8213 17.7155L24.1107 24.1016C24.1107 24.1016 22.2025 23.2352 19.9406 23.3773C16.6235 23.5866 16.5883 25.6741 16.622 26.1983C16.8027 29.0544 24.3327 29.6779 24.7554 36.3682C25.0877 41.6312 21.9575 45.2315 17.4474 45.5157C12.0339 45.8565 9.05371 42.6703 9.05371 42.6703L10.2007 37.8016C10.2007 37.8016 13.2008 40.0602 15.6021 39.9089C17.1703 39.8096 17.7308 38.5366 17.6741 37.6365C17.4383 33.9109 11.3064 34.131 10.919 28.0091C10.5928 22.8577 13.9834 17.6375 21.4644 17.1669C24.3465 16.9819 25.8213 17.7155 25.8213 17.7155Z" fill="white"/>
</g>
</svg>
