<svg width="20" height="20" viewBox="0 0 20 20" fill="none" xmlns="http://www.w3.org/2000/svg">
<g id="remove_red_eye" clip-path="url(#clip0_222_1180)">
<path id="Vector" d="M9.99992 5.2C13.1583 5.2 15.9749 6.904 17.3499 9.6C15.9749 12.296 13.1666 14 9.99992 14C6.83325 14 4.02492 12.296 2.64992 9.6C4.02492 6.904 6.84158 5.2 9.99992 5.2ZM9.99992 3.6C5.83325 3.6 2.27492 6.088 0.833252 9.6C2.27492 13.112 5.83325 15.6 9.99992 15.6C14.1666 15.6 17.7249 13.112 19.1666 9.6C17.7249 6.088 14.1666 3.6 9.99992 3.6ZM9.99992 7.6C11.1499 7.6 12.0833 8.496 12.0833 9.6C12.0833 10.704 11.1499 11.6 9.99992 11.6C8.84992 11.6 7.91658 10.704 7.91658 9.6C7.91658 8.496 8.84992 7.6 9.99992 7.6ZM9.99992 6C7.93325 6 6.24992 7.616 6.24992 9.6C6.24992 11.584 7.93325 13.2 9.99992 13.2C12.0666 13.2 13.7499 11.584 13.7499 9.6C13.7499 7.616 12.0666 6 9.99992 6Z" fill="#A3AED0"/>
</g>
<defs>
<clipPath id="clip0_222_1180">
<rect width="20" height="19.2" fill="white"/>
</clipPath>
</defs>
</svg>
