<svg width="24" height="24" viewBox="0 0 24 24" fill="none" xmlns="http://www.w3.org/2000/svg">
<g id="slow_motion_video" clip-path="url(#clip0_1_4479)">
<path id="Vector" d="M13.0498 9.78999L9.9998 7.49999V16.5L13.0498 14.21L15.9998 12L13.0498 9.78999ZM13.0498 9.78999L9.9998 7.49999V16.5L13.0498 14.21L15.9998 12L13.0498 9.78999ZM13.0498 9.78999L9.9998 7.49999V16.5L13.0498 14.21L15.9998 12L13.0498 9.78999ZM10.9998 4.06999V2.04999C8.9898 2.24999 7.1598 3.04999 5.6798 4.25999L7.0998 5.68999C8.20981 4.82999 9.5398 4.24999 10.9998 4.06999ZM5.6898 7.09999L4.2598 5.67999C3.0498 7.15999 2.2498 8.98999 2.0498 11H4.0698C4.2498 9.53999 4.8298 8.20999 5.6898 7.09999ZM4.0698 13H2.0498C2.2498 15.01 3.0498 16.84 4.2598 18.32L5.6898 16.89C4.8298 15.79 4.2498 14.46 4.0698 13ZM5.6798 19.74C7.1598 20.95 8.9998 21.75 10.9998 21.95V19.93C9.5398 19.75 8.20981 19.17 7.0998 18.31L5.6798 19.74ZM21.9998 12C21.9998 17.16 18.0798 21.42 13.0498 21.95V19.93C16.9698 19.41 19.9998 16.05 19.9998 12C19.9998 7.94999 16.9698 4.58999 13.0498 4.06999V2.04999C18.0798 2.57999 21.9998 6.83999 21.9998 12Z" fill="#EE5D50"/>
</g>
<defs>
<clipPath id="clip0_1_4479">
<rect width="24" height="24" fill="white"/>
</clipPath>
</defs>
</svg>
