<svg width="28" height="28" viewBox="0 0 28 28" fill="none" xmlns="http://www.w3.org/2000/svg">
<g id="Icon" clip-path="url(#clip0_1_3943)">
<path id="Vector" d="M25.6663 6.04325L12.3547 19.3666L7.40801 14.4199L9.05301 12.7749L12.3547 16.0766L24.0213 4.40992L25.6663 6.04325ZM13.9997 23.3333C8.85467 23.3333 4.66634 19.1449 4.66634 13.9999C4.66634 8.85492 8.85467 4.66659 13.9997 4.66659C15.8313 4.66659 17.5463 5.20325 18.993 6.12492L20.6847 4.43325C18.783 3.11492 16.4847 2.33325 13.9997 2.33325C7.55967 2.33325 2.33301 7.55992 2.33301 13.9999C2.33301 20.4399 7.55967 25.6666 13.9997 25.6666C16.018 25.6666 17.9197 25.1533 19.5763 24.2433L17.8263 22.4933C16.6597 23.0299 15.3647 23.3333 13.9997 23.3333ZM22.1663 17.4999H18.6663V19.8333H22.1663V23.3333H24.4997V19.8333H27.9997V17.4999H24.4997V13.9999H22.1663V17.4999Z" fill="white"/>
</g>
<defs>
<clipPath id="clip0_1_3943">
<rect width="28" height="28" fill="white"/>
</clipPath>
</defs>
</svg>
