<svg width="24" height="24" viewBox="0 0 24 24" fill="none" xmlns="http://www.w3.org/2000/svg">
<g id="timer" clip-path="url(#clip0_1_4485)">
<path id="Vector" d="M15.0698 1.01001H9.06982V3.01001H15.0698V1.01001ZM11.0698 14.01H13.0698V8.01001H11.0698V14.01ZM19.0998 7.39001L20.5198 5.97001C20.0898 5.46001 19.6198 4.98001 19.1098 4.56001L17.6898 5.98001C16.1398 4.74001 14.1898 4.00001 12.0698 4.00001C7.09982 4.00001 3.06982 8.03001 3.06982 13C3.06982 17.97 7.08982 22 12.0698 22C17.0498 22 21.0698 17.97 21.0698 13C21.0698 10.89 20.3298 8.94001 19.0998 7.39001ZM12.0698 20.01C8.19982 20.01 5.06982 16.88 5.06982 13.01C5.06982 9.14001 8.19982 6.01001 12.0698 6.01001C15.9398 6.01001 19.0698 9.14001 19.0698 13.01C19.0698 16.88 15.9398 20.01 12.0698 20.01Z" fill="#01B574"/>
</g>
<defs>
<clipPath id="clip0_1_4485">
<rect width="24" height="24" fill="white"/>
</clipPath>
</defs>
</svg>
