<svg width="32" height="32" viewBox="0 0 32 32" fill="none" xmlns="http://www.w3.org/2000/svg">
<g id="upload" clip-path="url(#clip0_212_7251)">
<path id="Vector" d="M13.3334 21.3333H18.6667C19.4001 21.3333 20.0001 20.7333 20.0001 20V13.3333H22.1201C23.3067 13.3333 23.9067 11.8933 23.0667 11.0533L16.9467 4.93333C16.4267 4.41333 15.5867 4.41333 15.0667 4.93333L8.94675 11.0533C8.10675 11.8933 8.69341 13.3333 9.88008 13.3333H12.0001V20C12.0001 20.7333 12.6001 21.3333 13.3334 21.3333ZM8.00008 24H24.0001C24.7334 24 25.3334 24.6 25.3334 25.3333C25.3334 26.0667 24.7334 26.6667 24.0001 26.6667H8.00008C7.26675 26.6667 6.66675 26.0667 6.66675 25.3333C6.66675 24.6 7.26675 24 8.00008 24Z" fill="#4318FF"/>
</g>
<defs>
<clipPath id="clip0_212_7251">
<rect width="32" height="32" fill="white"/>
</clipPath>
</defs>
</svg>
