<svg width="24" height="24" viewBox="0 0 24 24" fill="none" xmlns="http://www.w3.org/2000/svg">
<g id="watch_later" clip-path="url(#clip0_1_4464)">
<g id="Group">
<g id="Group_2">
<path id="Vector" d="M12.0092 2.79584C6.94216 2.79584 2.79639 6.94161 2.79639 12.0087C2.79639 17.0757 6.94216 21.2215 12.0092 21.2215C17.0763 21.2215 21.222 17.0757 21.222 12.0087C21.222 6.94161 17.0763 2.79584 12.0092 2.79584ZM12.0092 19.3789C7.94636 19.3789 4.63895 16.0715 4.63895 12.0087C4.63895 7.94581 7.94636 4.6384 12.0092 4.6384C16.0721 4.6384 19.3795 7.94581 19.3795 12.0087C19.3795 16.0715 16.0721 19.3789 12.0092 19.3789ZM12.4699 7.40225H11.0879V12.9299L15.8786 15.8781L16.6156 14.6804L12.4699 12.1929V7.40225Z" fill="white"/>
</g>
</g>
</g>
<defs>
<clipPath id="clip0_1_4464">
<rect width="22.1108" height="22.1108" fill="white" transform="translate(0.953613 0.953247)"/>
</clipPath>
</defs>
</svg>
