<svg width="141" height="46" viewBox="0 0 141 46" fill="none" xmlns="http://www.w3.org/2000/svg">
<g id="Wordmark">
<path id="s 1" d="M12.1089 21.088C10.4153 20.171 9.54494 19.398 9.54494 18.3355C9.54494 16.9835 10.754 16.115 12.6421 16.115C14.84 16.115 16.8024 17.032 16.8024 17.032L18.3502 12.3C18.3502 12.3 16.927 11.189 12.7378 11.189C6.90807 11.189 2.8677 14.5205 2.8677 19.204C2.8677 21.8595 4.75422 23.8875 7.27109 25.335C9.30343 26.493 10.0295 27.3145 10.0295 28.521C10.0295 29.776 9.01332 30.79 7.1268 30.79C4.31525 30.79 1.66014 29.341 1.66014 29.341L0.0151367 34.073C0.0151367 34.073 2.46822 35.7145 6.59517 35.7145C12.595 35.7145 16.9012 32.7695 16.9012 27.4585C16.8996 24.612 14.723 22.584 12.1089 21.088Z" fill="#D9D9D9"/>
<path id="h 1" d="M36.0108 11.142C33.0595 11.142 30.737 12.5425 28.9477 14.666L28.8505 14.6175L31.4145 1.24451H24.7372L18.2544 35.281H24.9316L27.1569 23.6465C28.0272 19.2525 30.3011 16.55 32.4306 16.55C33.9298 16.55 34.5116 17.564 34.5116 19.013C34.5116 19.93 34.4144 21.041 34.2215 21.958L31.7061 35.2826H38.3833L40.9959 21.523C41.286 20.074 41.4805 18.337 41.4805 17.1775C41.4774 13.411 39.4937 11.142 36.0108 11.142Z" fill="#D9D9D9"/>
<path id="o 1" d="M56.5727 11.142C48.5406 11.142 43.2197 18.384 43.2197 26.446C43.2197 31.6115 46.4125 35.763 52.4123 35.763C60.2987 35.763 65.621 28.715 65.621 20.459C65.621 15.68 62.814 11.142 56.5727 11.142ZM53.2827 30.6475C51.0088 30.6475 50.0413 28.7165 50.0413 26.302C50.0413 22.4885 52.025 16.2605 55.6537 16.2605C58.0248 16.2605 58.798 18.2885 58.798 20.268C58.798 24.371 56.8157 30.6475 53.2827 30.6475Z" fill="#D9D9D9"/>
<path id="p 1" d="M82.6997 11.142C78.1931 11.142 75.6352 15.101 75.6352 15.101H75.5395L75.9268 11.5285H70.0242C69.7341 13.943 69.201 17.611 68.6693 20.3635L64.0244 44.7435H70.7017L72.5396 34.8945H72.6854C72.6854 34.8945 74.0555 35.763 76.6043 35.763C84.442 35.763 89.5699 27.7495 89.5699 19.6375C89.5699 15.1495 87.5862 11.142 82.6997 11.142ZM76.3126 30.743C74.5795 30.743 73.5542 29.7775 73.5542 29.7775L74.6676 23.5495C75.4423 19.398 77.6189 16.6455 79.9414 16.6455C81.9737 16.6455 82.6025 18.528 82.6025 20.315C82.6025 24.612 80.0386 30.743 76.3126 30.743Z" fill="#D9D9D9"/>
<path id="dot 1" d="M99.1014 1.5824C96.9734 1.5824 95.2798 3.2724 95.2798 5.4444C95.2798 7.4239 96.5375 8.7759 98.424 8.7759H98.5212C100.602 8.7759 102.391 7.3754 102.44 4.9139C102.44 2.9829 101.134 1.5824 99.1014 1.5824Z" fill="#D9D9D9"/>
<path id="i 1" d="M89.7646 35.281H96.4404L100.99 11.674H94.2637L89.7646 35.281Z" fill="#D9D9D9"/>
<path id="f 1" d="M117.971 11.6255H113.326L113.568 10.5145C113.955 8.24546 115.31 6.21745 117.535 6.21745C118.723 6.21745 119.663 6.55545 119.663 6.55545L120.969 1.34145C120.969 1.34145 119.809 0.762451 117.341 0.762451C114.97 0.762451 112.6 1.43845 110.809 2.98295C108.535 4.91395 107.471 7.71345 106.939 10.5145L106.746 11.6255H103.649L102.681 16.647H105.779L102.247 35.2825H108.924L112.456 16.647H117.052L117.971 11.6255Z" fill="#D9D9D9"/>
<path id="y 1" d="M134.034 11.674C134.034 11.674 129.86 22.1672 127.985 27.895H127.888C127.761 26.0504 126.243 11.674 126.243 11.674H119.227L123.245 33.35C123.342 33.832 123.293 34.123 123.099 34.461C122.324 35.957 121.018 37.406 119.47 38.4685C118.213 39.3855 116.809 39.9645 115.697 40.351L117.535 46C118.89 45.7105 121.696 44.5995 124.067 42.379C127.115 39.531 129.921 35.137 132.823 29.15L141 11.6725H134.034V11.674Z" fill="#D9D9D9"/>
</g>
</svg>
